<?xml version="1.0" encoding="UTF-8" standalone="no"?>
<!-- Created with Inkscape (http://www.inkscape.org/) -->

<svg
   xmlns:dc="http://purl.org/dc/elements/1.1/"
   xmlns:cc="http://creativecommons.org/ns#"
   xmlns:rdf="http://www.w3.org/1999/02/22-rdf-syntax-ns#"
   xmlns:svg="http://www.w3.org/2000/svg"
   xmlns="http://www.w3.org/2000/svg"
   xmlns:sodipodi="http://sodipodi.sourceforge.net/DTD/sodipodi-0.dtd"
   xmlns:inkscape="http://www.inkscape.org/namespaces/inkscape"
   width="360"
   height="360"
   viewBox="0 0 95.250001 95.250001"
   version="1.1"
   id="svg4887"
   inkscape:version="0.92.1 r15371"
   sodipodi:docname="game_splash.svg"
   inkscape:export-filename="C:\Users\loren\Projects\SmartRoadSense\Clients\Clients\Android\Resources\drawable-xxhdpi\game_splash.png"
   inkscape:export-xdpi="288"
   inkscape:export-ydpi="288">
  <defs
     id="defs4881">
    <clipPath
       id="clipPath4555"
       clipPathUnits="userSpaceOnUse">
      <path
         inkscape:connector-curvature="0"
         id="path4553"
         d="M 0,2560 H 1440 V 0 H 0 Z" />
    </clipPath>
    <clipPath
       id="clipPath4643"
       clipPathUnits="userSpaceOnUse">
      <path
         inkscape:connector-curvature="0"
         id="path4641"
         d="M 769.673,1151.89 H 884.814 V 1007.33 H 769.673 Z" />
    </clipPath>
    <clipPath
       id="clipPath4667"
       clipPathUnits="userSpaceOnUse">
      <path
         inkscape:connector-curvature="0"
         id="path4665"
         d="M 742.344,1439.57 H 1042.85 V 1107.39 H 742.344 Z" />
    </clipPath>
    <clipPath
       id="clipPath4687"
       clipPathUnits="userSpaceOnUse">
      <path
         inkscape:connector-curvature="0"
         id="path4685"
         d="M 682.984,1215.83 H 815.402 V 1087.82 H 682.984 Z" />
    </clipPath>
    <clipPath
       id="clipPath4555-5"
       clipPathUnits="userSpaceOnUse">
      <path
         inkscape:connector-curvature="0"
         id="path4553-8"
         d="M 0,2560 H 1440 V 0 H 0 Z" />
    </clipPath>
    <clipPath
       id="clipPath4643-2"
       clipPathUnits="userSpaceOnUse">
      <path
         inkscape:connector-curvature="0"
         id="path4641-3"
         d="M 769.673,1151.89 H 884.814 V 1007.33 H 769.673 Z" />
    </clipPath>
    <clipPath
       id="clipPath4667-8"
       clipPathUnits="userSpaceOnUse">
      <path
         inkscape:connector-curvature="0"
         id="path4665-3"
         d="M 742.344,1439.57 H 1042.85 V 1107.39 H 742.344 Z" />
    </clipPath>
    <clipPath
       id="clipPath4687-6"
       clipPathUnits="userSpaceOnUse">
      <path
         inkscape:connector-curvature="0"
         id="path4685-2"
         d="M 682.984,1215.83 H 815.402 V 1087.82 H 682.984 Z" />
    </clipPath>
  </defs>
  <sodipodi:namedview
     id="base"
     pagecolor="#ffffff"
     bordercolor="#666666"
     borderopacity="1.0"
     inkscape:pageopacity="0.0"
     inkscape:pageshadow="2"
     inkscape:zoom="1.979899"
     inkscape:cx="220.03403"
     inkscape:cy="180.77201"
     inkscape:document-units="mm"
     inkscape:current-layer="layer1"
     showgrid="false"
     fit-margin-top="0"
     fit-margin-left="0"
     fit-margin-right="0"
     fit-margin-bottom="0"
     inkscape:window-width="2160"
     inkscape:window-height="1346"
     inkscape:window-x="-11"
     inkscape:window-y="-11"
     inkscape:window-maximized="1"
     units="px" />
  <metadata
     id="metadata4884">
    <rdf:RDF>
      <cc:Work
         rdf:about="">
        <dc:format>image/svg+xml</dc:format>
        <dc:type
           rdf:resource="http://purl.org/dc/dcmitype/StillImage" />
        <dc:title></dc:title>
      </cc:Work>
    </rdf:RDF>
  </metadata>
  <g
     inkscape:label="Layer 1"
     inkscape:groupmode="layer"
     id="layer1"
     transform="translate(34.742228,-185.06864)">
    <g
       transform="matrix(0.12214347,0,0,-0.1263262,-75.06049,376.7055)"
       id="g4549">
      <g
         clip-path="url(#clipPath4555-5)"
         id="g4551">
        <g
           transform="translate(395.8691,1273.9346)"
           id="g4557">
          <path
             inkscape:connector-curvature="0"
             id="path4559"
             style="fill:#2a69ff;fill-opacity:1;fill-rule:nonzero;stroke:none"
             d="m 0,0 c -7.619,0 -13.794,-5.971 -13.794,-13.336 0,-7.364 6.175,-13.335 13.794,-13.335 7.618,0 13.794,5.971 13.794,13.335 C 13.794,-5.971 7.618,0 0,0" />
        </g>
        <g
           transform="translate(501.1426,1087.9404)"
           id="g4561">
          <path
             inkscape:connector-curvature="0"
             id="path4563"
             style="fill:#2a69ff;fill-opacity:1;fill-rule:nonzero;stroke:none"
             d="m 0,0 c 0,-7.364 -6.176,-13.335 -13.794,-13.335 -7.619,0 -13.795,5.971 -13.795,13.335 0,7.365 6.176,13.336 13.795,13.336 C -6.176,13.336 0,7.365 0,0" />
        </g>
        <g
           transform="translate(541.8003,1153.916)"
           id="g4565">
          <path
             inkscape:connector-curvature="0"
             id="path4567"
             style="fill:#2a69ff;fill-opacity:1;fill-rule:nonzero;stroke:none"
             d="m 0,0 c 0,-7.365 -6.176,-13.336 -13.794,-13.336 -7.619,0 -13.795,5.971 -13.795,13.336 0,7.365 6.176,13.335 13.795,13.335 C -6.176,13.335 0,7.365 0,0" />
        </g>
        <g
           transform="translate(813.334,894.2266)"
           id="g4569">
          <path
             inkscape:connector-curvature="0"
             id="path4571"
             style="fill:#2a69ff;fill-opacity:1;fill-rule:nonzero;stroke:none"
             d="m 0,0 c 0,-7.365 -6.176,-13.335 -13.795,-13.335 -7.618,0 -13.794,5.97 -13.794,13.335 0,7.365 6.176,13.336 13.794,13.336 C -6.176,13.336 0,7.365 0,0" />
        </g>
        <g
           transform="translate(920.7861,880.1895)"
           id="g4573">
          <path
             inkscape:connector-curvature="0"
             id="path4575"
             style="fill:#2a69ff;fill-opacity:1;fill-rule:nonzero;stroke:none"
             d="m 0,0 c 0,-7.365 -6.176,-13.335 -13.795,-13.335 -7.618,0 -13.794,5.97 -13.794,13.335 0,7.365 6.176,13.335 13.794,13.335 C -6.176,13.335 0,7.365 0,0" />
        </g>
        <g
           transform="translate(671.0327,971.4316)"
           id="g4577">
          <path
             inkscape:connector-curvature="0"
             id="path4579"
             style="fill:#2a69ff;fill-opacity:1;fill-rule:nonzero;stroke:none"
             d="m 0,0 c 0,-7.365 -6.176,-13.336 -13.794,-13.336 -7.619,0 -13.795,5.971 -13.795,13.336 0,7.365 6.176,13.335 13.795,13.335 C -6.176,13.335 0,7.365 0,0" />
        </g>
        <g
           transform="translate(747.9912,945.4629)"
           id="g4581">
          <path
             inkscape:connector-curvature="0"
             id="path4583"
             style="fill:#2a69ff;fill-opacity:1;fill-rule:nonzero;stroke:none"
             d="m 0,0 c 0,-3.102 -2.6,-5.615 -5.808,-5.615 -3.208,0 -5.808,2.513 -5.808,5.615 0,3.101 2.6,5.614 5.808,5.614 C -2.6,5.614 0,3.101 0,0" />
        </g>
        <g
           transform="translate(922.2383,823.3389)"
           id="g4585">
          <path
             inkscape:connector-curvature="0"
             id="path4587"
             style="fill:#2a69ff;fill-opacity:1;fill-rule:nonzero;stroke:none"
             d="m 0,0 c 0,-3.102 -2.601,-5.615 -5.809,-5.615 -3.208,0 -5.808,2.513 -5.808,5.615 0,3.101 2.6,5.614 5.808,5.614 C -2.601,5.614 0,3.101 0,0" />
        </g>
        <g
           transform="translate(871.416,934.2324)"
           id="g4589">
          <path
             inkscape:connector-curvature="0"
             id="path4591"
             style="fill:#2a69ff;fill-opacity:1;fill-rule:nonzero;stroke:none"
             d="m 0,0 c 0,-3.101 -2.601,-5.614 -5.808,-5.614 -3.208,0 -5.808,2.513 -5.808,5.614 0,3.102 2.6,5.615 5.808,5.615 C -2.601,5.615 0,3.102 0,0" />
        </g>
        <g
           transform="translate(662.3208,901.9473)"
           id="g4593">
          <path
             inkscape:connector-curvature="0"
             id="path4595"
             style="fill:#2a69ff;fill-opacity:1;fill-rule:nonzero;stroke:none"
             d="m 0,0 c 0,-3.102 -2.601,-5.615 -5.809,-5.615 -3.207,0 -5.808,2.513 -5.808,5.615 0,3.101 2.601,5.615 5.808,5.615 C -2.601,5.615 0,3.101 0,0" />
        </g>
        <g
           transform="translate(695.0044,1062.083)"
           id="g4597">
          <path
             inkscape:connector-curvature="0"
             id="path4599"
             style="fill:#2a69ff;fill-opacity:1;fill-rule:nonzero;stroke:none"
             d="m 0,0 c -1.54,-2.72 -5.069,-3.718 -7.883,-2.229 -2.814,1.489 -3.847,4.901 -2.307,7.621 1.54,2.72 5.07,3.718 7.884,2.23 C 0.508,6.133 1.541,2.721 0,0" />
        </g>
        <g
           transform="translate(568.6758,1090.1582)"
           id="g4601">
          <path
             inkscape:connector-curvature="0"
             id="path4603"
             style="fill:#2a69ff;fill-opacity:1;fill-rule:nonzero;stroke:none"
             d="m 0,0 c -1.54,-2.721 -5.069,-3.719 -7.883,-2.229 -2.814,1.488 -3.847,4.9 -2.307,7.621 1.541,2.719 5.07,3.717 7.884,2.229 C 0.508,6.132 1.541,2.72 0,0" />
        </g>
        <g
           transform="translate(461.2241,1164.5557)"
           id="g4605">
          <path
             inkscape:connector-curvature="0"
             id="path4607"
             style="fill:#2a69ff;fill-opacity:1;fill-rule:nonzero;stroke:none"
             d="m 0,0 c -1.54,-2.721 -5.07,-3.719 -7.884,-2.229 -2.813,1.488 -3.846,4.9 -2.306,7.621 1.54,2.719 5.07,3.717 7.884,2.229 C 0.507,6.132 1.54,2.72 0,0" />
        </g>
        <g
           transform="translate(400.2378,1328.7915)"
           id="g4609">
          <path
             inkscape:connector-curvature="0"
             id="path4611"
             style="fill:#2a69ff;fill-opacity:1;fill-rule:nonzero;stroke:none"
             d="m 0,0 c -1.54,-2.72 -5.07,-3.719 -7.883,-2.23 -2.814,1.489 -3.847,4.901 -2.307,7.622 1.54,2.72 5.07,3.718 7.884,2.229 C 0.508,6.132 1.54,2.72 0,0" />
        </g>
        <g
           transform="translate(484.457,1227.7227)"
           id="g4613">
          <path
             inkscape:connector-curvature="0"
             id="path4615"
             style="fill:#2a69ff;fill-opacity:1;fill-rule:nonzero;stroke:none"
             d="m 0,0 c -1.54,-2.72 -5.07,-3.718 -7.884,-2.229 -2.814,1.489 -3.846,4.901 -2.306,7.621 1.54,2.72 5.07,3.718 7.883,2.23 C 0.507,6.133 1.54,2.721 0,0" />
        </g>
        <g
           transform="translate(651.8481,1097.9414)"
           id="g4617">
          <path
             inkscape:connector-curvature="0"
             id="path4619"
             style="fill:#2a69ff;fill-opacity:1;fill-rule:nonzero;stroke:none"
             d="m 0,0 c 1.562,-3.565 3.44,-6.968 5.57,-10.2 l -119.972,-115.979 c 0.035,0.67 0.105,1.331 0.105,2.01 0,4.139 -0.65,8.13 -1.851,11.887 z m 68.777,-332.904 c 57.842,0 112.715,12.258 162.023,34.201 -6.798,7.654 -18.975,13.352 -33.27,14.586 -1.763,0.152 -3.496,0.208 -5.213,0.219 -8.2,20.58 -28.837,35.189 -53.015,35.189 -4.544,0 -8.957,-0.531 -13.192,-1.505 -8.369,9.326 -20.71,15.234 -34.485,15.234 -0.34,0 -0.676,-0.018 -1.015,-0.026 0,0.009 0.001,0.017 0.001,0.026 0,15.164 -12.716,27.458 -28.403,27.458 -12.392,0 -22.902,-7.686 -26.782,-18.385 -4.522,2.938 -9.965,4.655 -15.822,4.655 -11.227,0 -20.903,-6.311 -25.514,-15.45 -6.32,4.405 -14.529,7.748 -23.827,9.22 -7.886,1.247 -15.471,0.967 -22.14,-0.497 0.279,1.881 0.473,3.79 0.473,5.747 0,15.378 -8.938,28.726 -22.058,35.489 1.14,3.67 1.77,7.553 1.77,11.581 0,4.68 -0.87,9.152 -2.39,13.328 L 51.04,-40.877 c 4.922,-1.028 10.026,-1.583 15.267,-1.583 39.755,0 71.983,31.154 71.983,69.587 0,38.432 -32.228,69.587 -71.983,69.587 -39.755,0 -71.983,-31.155 -71.983,-69.587 0,-4.356 0.434,-8.61 1.226,-12.744 L -122.734,-99.964 c -7.593,9.703 -19.597,16.001 -33.153,16.001 -10.183,0 -19.501,-3.55 -26.731,-9.423 -4.194,5.822 -9.944,10.497 -16.664,13.513 6.874,12.381 -2.23,31.206 -21.027,42.766 -2.27,1.396 -4.582,2.608 -6.904,3.669 0.861,2.623 1.333,5.414 1.333,8.313 0,3.956 -0.882,7.707 -2.44,11.104 12.46,7.879 20.699,21.48 20.699,36.948 0,20.693 -14.737,38.052 -34.617,42.823 4.596,7.929 7.228,17.065 7.228,26.802 0,30.329 -25.433,54.915 -56.806,54.915 -4.175,0 -8.24,-0.447 -12.159,-1.275 -9.86,-33.052 -15.158,-67.975 -15.158,-104.096 0,-207.108 173.674,-375 387.91,-375" />
        </g>
        <g
           transform="translate(1107.9102,1140)"
           id="g4621">
          <path
             inkscape:connector-curvature="0"
             id="path4623"
             style="fill:none;stroke:#ffffff;stroke-width:4;stroke-linecap:butt;stroke-linejoin:miter;stroke-miterlimit:10;stroke-dasharray:none;stroke-opacity:1"
             d="m 0,0 c 0,207.107 -173.673,375 -387.91,375 -214.237,0 -387.911,-167.893 -387.911,-375 0,-207.106 173.674,-375 387.911,-375 C -173.673,-375 0,-207.106 0,0 Z" />
        </g>
        <g
           transform="translate(810.8447,1125.0684)"
           id="g4625">
          <path
             inkscape:connector-curvature="0"
             id="path4627"
             style="fill:none;stroke:#2965f6;stroke-width:5;stroke-linecap:butt;stroke-linejoin:miter;stroke-miterlimit:10;stroke-dasharray:none;stroke-opacity:1"
             d="m 0,0 c 0,-49.488 -41.498,-89.605 -92.689,-89.605 -51.192,0 -92.69,40.117 -92.69,89.605 0,49.487 41.498,89.604 92.69,89.604 C -41.498,89.604 0,49.487 0,0 Z" />
        </g>
        <g
           transform="translate(745.7686,1279.8359)"
           id="g4629">
          <path
             inkscape:connector-curvature="0"
             id="path4631"
             style="fill:#e2e2e2;fill-opacity:1;fill-rule:nonzero;stroke:none"
             d="m 0,0 c -7.205,4.179 -13.904,6.378 -22.47,6.469 -9.058,0.096 -18.1,-1.984 -26.357,-5.527 -13.8,-5.921 -25.507,-15.582 -36.32,-25.77 -25.437,-23.968 -44.803,-51.599 -64.395,-80.009 2.791,4.046 8.54,7.567 12.159,10.924 6.409,5.942 13.573,11.304 20.52,16.639 13.998,10.748 28.586,20.777 43.685,30.028 6.609,4.049 13.357,7.972 20.593,10.892 5.066,2.045 10.853,4.346 16.509,3.68 3.024,-0.356 5.268,-1.698 7.322,-3.805 0.908,-0.931 5.641,-5.017 4.781,-6.559 z" />
        </g>
        <g
           transform="translate(878.1191,1151.8896)"
           id="g4633">
          <path
             inkscape:connector-curvature="0"
             id="path4635"
             style="fill:#e2e2e2;fill-opacity:1;fill-rule:nonzero;stroke:none"
             d="m 0,0 c 4.323,-6.965 6.599,-13.441 6.691,-21.722 0.1,-8.757 -2.051,-17.498 -5.716,-25.479 -6.125,-13.342 -16.12,-24.659 -26.659,-35.112 -24.792,-24.59 -53.375,-43.311 -82.762,-62.251 4.184,2.697 7.828,8.255 11.3,11.754 6.146,6.196 11.693,13.121 17.211,19.837 11.119,13.532 21.493,27.635 31.062,42.231 4.188,6.388 8.246,12.912 11.268,19.907 2.116,4.898 4.496,10.492 3.806,15.96 -0.369,2.924 -1.757,5.093 -3.935,7.078 -0.964,0.879 -5.191,5.453 -6.787,4.623 z" />
        </g>
        <g
           id="g4637">
          <g
             id="g4639" />
          <g
             id="g4651">
            <g
               style="opacity:0.25"
               id="g4649"
               clip-path="url(#clipPath4643-2)">
              <g
                 id="g4647"
                 transform="translate(878.1191,1151.8896)">
                <path
                   inkscape:connector-curvature="0"
                   id="path4645"
                   style="fill:#000000;fill-opacity:1;fill-rule:nonzero;stroke:none"
                   d="m 0,0 c 4.323,-6.965 6.599,-13.441 6.691,-21.722 0.1,-8.757 -2.051,-17.498 -5.716,-25.479 -6.125,-13.342 -16.12,-24.659 -26.659,-35.112 -24.792,-24.59 -53.375,-43.311 -82.762,-62.251 4.184,2.697 7.828,8.255 11.3,11.754 6.146,6.196 11.693,13.121 17.211,19.837 11.119,13.532 21.493,27.635 31.062,42.231 4.188,6.388 8.246,12.912 11.268,19.907 2.116,4.898 4.496,10.492 3.806,15.96 -0.369,2.924 -1.757,5.093 -3.935,7.078 -0.964,0.879 -5.191,5.453 -6.787,4.623 z" />
              </g>
            </g>
          </g>
        </g>
        <g
           transform="translate(909.2939,1310.459)"
           id="g4653">
          <path
             inkscape:connector-curvature="0"
             id="path4655"
             style="fill:#ffffff;fill-opacity:1;fill-rule:nonzero;stroke:none"
             d="m 0,0 c -17.968,17.37 -17.968,45.532 0,62.902 17.968,17.37 47.1,17.37 65.067,0 C 83.036,45.532 83.036,17.37 65.067,0 47.1,-17.37 17.968,-17.37 0,0 m 55.278,-92.765 c 14.108,14.547 26.076,30.96 36.278,48.266 7.201,12.217 13.533,24.909 19.09,37.901 4.018,9.391 7.397,18.938 10.357,28.669 5.144,16.909 8.384,35.091 10.438,52.723 1.055,9.05 1.704,18.145 1.896,27.252 0.19,9.034 -0.804,18.13 0.224,27.069 -9.248,-0.993 -18.657,-0.032 -28.001,-0.216 -9.42,-0.186 -18.83,-0.813 -28.191,-1.832 C 59.13,125.081 40.322,121.949 22.831,116.976 12.766,114.114 2.89,110.848 -6.824,106.964 -20.265,101.591 -33.394,95.47 -46.031,88.508 -63.933,78.647 -80.91,67.076 -95.958,53.439 c -21.206,-19.207 -39.479,-41.229 -55.7,-64.486 -11.813,-16.937 -22.609,-34.559 -32.402,-52.659 -4.914,-9.082 -9.565,-18.297 -13.937,-27.635 -2.187,-4.674 -4.304,-9.377 -6.349,-14.11 -1.065,-2.464 -2.11,-4.936 -3.135,-7.415 -0.572,-1.384 -2.818,-4.892 -2.562,-6.317 l 43.378,-41.935 43.379,-41.935 c 1.473,-0.247 5.102,1.925 6.534,2.478 2.564,0.991 5.122,2.001 7.67,3.03 4.896,1.978 9.762,4.024 14.596,6.139 9.66,4.224 19.192,8.721 28.587,13.472 18.722,9.468 36.951,19.904 54.471,31.323 24.059,15.681 46.838,33.346 66.706,53.846" />
        </g>
        <g
           transform="translate(1030.7939,1334.2563)"
           id="g4657">
          <path
             inkscape:connector-curvature="0"
             id="path4659"
             style="fill:#e2e2e2;fill-opacity:1;fill-rule:nonzero;stroke:none"
             d="m 0,0 c 4.848,16.42 7.956,33.959 9.941,50.997 1.055,9.05 1.704,18.145 1.896,27.252 0.19,9.033 -0.804,18.129 0.224,27.068 -9.248,-0.993 -18.657,-0.031 -28.001,-0.215 -9.42,-0.186 -18.83,-0.813 -28.191,-1.832 -17.624,-1.919 -35.766,-4.925 -52.752,-9.611 z" />
        </g>
        <g
           id="g4661">
          <g
             id="g4663" />
          <g
             id="g4675">
            <g
               style="opacity:0.25"
               id="g4673"
               clip-path="url(#clipPath4667-8)">
              <g
                 id="g4671"
                 transform="translate(964.5723,1217.6943)">
                <path
                   inkscape:connector-curvature="0"
                   id="path4669"
                   style="fill:#000000;fill-opacity:1;fill-rule:nonzero;stroke:none"
                   d="m 0,0 c 14.107,14.547 26.076,30.96 36.277,48.266 7.202,12.216 13.534,24.909 19.091,37.901 4.018,9.391 7.397,18.938 10.357,28.668 5.144,16.91 8.383,35.091 10.438,52.724 1.055,9.05 1.703,18.145 1.896,27.252 0.19,9.033 -0.804,18.129 0.223,27.068 -0.208,-0.022 -0.417,-0.03 -0.624,-0.051 L 9.497,155.936 c 0.096,-0.092 0.196,-0.177 0.292,-0.269 17.969,-17.37 17.969,-45.532 0,-62.902 -17.968,-17.37 -47.1,-17.37 -65.067,0 -0.096,0.092 -0.184,0.19 -0.279,0.282 L -222.229,-68.077 c 0.169,-0.163 0.286,-0.277 0.286,-0.277 l 43.379,-41.934 c 1.473,-0.247 5.102,1.925 6.534,2.477 2.564,0.992 5.122,2.001 7.67,3.031 4.896,1.977 9.761,4.023 14.595,6.138 9.661,4.225 19.193,8.722 28.587,13.473 18.723,9.468 36.951,19.903 54.472,31.322 C -42.647,-38.165 -19.868,-20.5 0,0" />
              </g>
            </g>
          </g>
        </g>
        <g
           transform="translate(687.5498,1087.8184)"
           id="g4677">
          <path
             inkscape:connector-curvature="0"
             id="path4679"
             style="fill:#e2e2e2;fill-opacity:1;fill-rule:nonzero;stroke:none"
             d="m 0,0 -9.132,8.828 127.853,123.598 9.132,-8.828 z" />
        </g>
        <g
           id="g4681">
          <g
             id="g4683" />
          <g
             id="g4695">
            <g
               style="opacity:0.25"
               id="g4693"
               clip-path="url(#clipPath4687-6)">
              <g
                 id="g4691"
                 transform="translate(687.5498,1087.8184)">
                <path
                   inkscape:connector-curvature="0"
                   id="path4689"
                   style="fill:#000000;fill-opacity:1;fill-rule:nonzero;stroke:none"
                   d="m 0,0 -4.566,4.414 127.852,123.598 4.567,-4.414 z" />
              </g>
            </g>
          </g>
        </g>
      </g>
    </g>
  </g>
</svg>
