<svg xmlns="http://www.w3.org/2000/svg" xmlns:xlink="http://www.w3.org/1999/xlink" version="1.1" x="0px" y="0px" viewBox="0 0 90 112.5" enable-background="new 0 0 90 90" xml:space="preserve"><path d="M52.8,43.6H49c-1,0-1.7,0.8-1.7,1.7v3.8c0,1,0.8,1.7,1.7,1.7h3.8c1,0,1.7-0.8,1.7-1.7v-3.8C54.6,44.4,53.8,43.6,52.8,43.6z"/><path d="M66.5,55.2c-1,0-1.7,0.8-1.7,1.7v1.7L60,53.9c0.4-0.8,0.6-1.7,0.6-2.6v-8.2c0-3.1-2.5-5.7-5.7-5.7h-2.3v-5.4l1.3,1.2  c0.3,0.3,0.8,0.5,1.2,0.5c0.5,0,0.9-0.2,1.3-0.5c0.7-0.7,0.6-1.8-0.1-2.5l-4.3-4.1c-0.7-0.6-1.7-0.6-2.4,0l-4.3,4.1  c-0.7,0.7-0.7,1.8-0.1,2.5c0.7,0.7,1.8,0.7,2.5,0.1l1.3-1.2v5.4h-2.3c-3.1,0-5.7,2.5-5.7,5.7v2.3H26.1l1.2-1.3  c0.7-0.7,0.6-1.8-0.1-2.5c-0.7-0.7-1.8-0.6-2.5,0.1L20.7,46c0,0-0.1,0.1-0.1,0.1c0,0-0.1,0.1-0.1,0.1c0,0.1-0.1,0.1-0.1,0.2  c0,0-0.1,0.1-0.1,0.1c0,0.1,0,0.1-0.1,0.2c0,0,0,0.1,0,0.1c0,0.2,0,0.5,0,0.7c0,0,0,0.1,0,0.1c0,0.1,0,0.1,0.1,0.2  c0,0,0,0.1,0.1,0.1c0,0.1,0.1,0.1,0.1,0.2c0,0,0.1,0.1,0.1,0.1c0,0,0.1,0.1,0.1,0.1l4.1,4.3c0.3,0.4,0.8,0.5,1.3,0.5  c0.4,0,0.9-0.2,1.2-0.5c0.7-0.7,0.7-1.8,0.1-2.5L26.1,49h15.1v2.3c0,3.1,2.5,5.7,5.7,5.7H55c0.9,0,1.8-0.2,2.5-0.6l4.7,4.7h-1.7  c-1,0-1.7,0.8-1.7,1.7s0.8,1.7,1.7,1.7h5.9c1,0,1.7-0.8,1.7-1.7V57C68.2,56,67.4,55.2,66.5,55.2z M46.9,53.5c-1.2,0-2.2-1-2.2-2.2  v-8.2c0-1.2,1-2.2,2.2-2.2H55c1.2,0,2.2,1,2.2,2.2v8.2c0,1.2-1,2.2-2.2,2.2H46.9z"/><text x="0" y="105" fill="#000000" font-size="5px" font-weight="bold" font-family="'Helvetica Neue', Helvetica, Arial-Unicode, Arial, Sans-serif">Created by Anuar Zhumaev</text><text x="0" y="110" fill="#000000" font-size="5px" font-weight="bold" font-family="'Helvetica Neue', Helvetica, Arial-Unicode, Arial, Sans-serif">from the Noun Project</text></svg>