<svg xmlns="http://www.w3.org/2000/svg" data-name="Layer 1" viewBox="0 0 128 160" x="0px" y="0px"><defs><style>.cls-1{fill:none;stroke:#000;stroke-linecap:round;stroke-linejoin:round;stroke-width:4px;}</style></defs><title>Artboard 22</title><path d="M64,7a57,57,0,1,0,57,57A57,57,0,0,0,64,7Zm0,17.15a7.84,7.84,0,0,1,2,15.42S66,61.93,66,63c.12,3.1.85,9.36,4.6,13.34A12.35,12.35,0,0,0,80,80c3.55,0,6-1.2,7.42-3.68,2.45-4.22,1.74-12-1.59-19.27l-3.13,5a2,2,0,1,1-3.39-2.12l5-8A1.94,1.94,0,0,1,86,51a2,2,0,0,1,1.7,1c4.4,7.72,7.25,19.24,3.14,26.32C89.38,80.92,86.27,84,80,84c-5.1,0-9.24-1.66-12.32-4.93A18.76,18.76,0,0,1,64,73.13a18.74,18.74,0,0,1-3.67,5.94C57.24,82.34,53.1,84,48,84c-6.27,0-9.38-3.08-10.88-5.67C33,71.25,35.87,59.73,40.26,52A2,2,0,0,1,42,51a1.93,1.93,0,0,1,1.74.94l5,8a2,2,0,0,1-3.39,2.12l-3.13-5c-3.33,7.31-4,15-1.59,19.27C42,78.8,44.45,80,48,80a12.35,12.35,0,0,0,9.41-3.67c3.73-4,4.46-10.13,4.59-13.25,0-1.12,0-23.5,0-23.5a7.84,7.84,0,0,1,2-15.42Zm48.09,52.61a2,2,0,0,1,.79,3.19c-.52.59-5.18,5.72-10.07,5.72h-.21a6.38,6.38,0,0,1-3.36-1.07q-.92,1.53-2,3a21.08,21.08,0,0,1,7.37,3.06,2,2,0,0,1,0,3.29c-.56.4-5,3.47-9.32,3.47a7.7,7.7,0,0,1-2-.25A6.39,6.39,0,0,1,90.07,95a37.33,37.33,0,0,1-12.86,6.6l-1.87.52a56.48,56.48,0,0,0-7.62,2.49,13.38,13.38,0,0,1,3.58,5.21,2,2,0,1,1-3.75,1.4A10,10,0,0,0,64,106.74a10,10,0,0,0-3.55,4.51,2,2,0,1,1-3.75-1.4,13.38,13.38,0,0,1,3.58-5.21,56.48,56.48,0,0,0-7.62-2.49l-1.87-.52A37.33,37.33,0,0,1,37.93,95a6.39,6.39,0,0,1-3.3,2.12,7.7,7.7,0,0,1-2,.25c-4.3,0-8.75-3.07-9.32-3.47a2,2,0,0,1,0-3.29,21.08,21.08,0,0,1,7.37-3.06q-1.05-1.44-2-3a6.38,6.38,0,0,1-3.36,1.07h-.21c-4.89,0-9.55-5.12-10.07-5.72a2,2,0,0,1,.79-3.19,19.93,19.93,0,0,1,8.88-1.2q-.43-1.47-.75-3a6.32,6.32,0,0,1-3.94.08c-4.76-1.43-7.63-7.94-7.94-8.67a2,2,0,0,1,1.76-2.78c.67,0,5.76-.15,9.35,2q.07-1.79.3-3.56a6.51,6.51,0,0,1-4.33-2.41c-3.09-3.89-1.74-10.87-1.57-11.65a2,2,0,0,1,3-1.28,21.43,21.43,0,0,1,5.52,5.18q.76-1.89,1.7-3.69A6.48,6.48,0,0,1,25,42c-1.34-4.78,2.62-10.69,3.07-11.35a2,2,0,0,1,3.29,0,22.07,22.07,0,0,1,2.91,6.23c.7-.73,1.43-1.42,2.18-2.08a6.44,6.44,0,0,1,.7-4.44c2.43-4.33,9.41-5.71,10.2-5.85a2,2,0,0,1,2.33,2.33c-.14.79-1.52,7.77-5.85,10.2a6.37,6.37,0,0,1-3.15.83,7,7,0,0,1-1.47-.16,36.52,36.52,0,0,0-12,27A34.4,34.4,0,0,0,51.89,97.78l1.83.51A47.92,47.92,0,0,1,64,102a47.92,47.92,0,0,1,10.28-3.73l1.83-.51A34.4,34.4,0,0,0,100.77,64.7a36.52,36.52,0,0,0-12-27,7,7,0,0,1-1.47.16A6.37,6.37,0,0,1,84.16,37c-4.33-2.43-5.71-9.41-5.85-10.2a2,2,0,0,1,2.33-2.33c.79.14,7.77,1.52,10.2,5.85a6.44,6.44,0,0,1,.7,4.44c.75.66,1.49,1.35,2.18,2.08a22.07,22.07,0,0,1,2.91-6.23,2,2,0,0,1,3.29,0c.46.66,4.41,6.57,3.07,11.35a6.48,6.48,0,0,1-2.92,3.81q.94,1.8,1.7,3.69a21.43,21.43,0,0,1,5.52-5.18,2,2,0,0,1,3,1.28c.16.78,1.52,7.77-1.57,11.65a6.51,6.51,0,0,1-4.33,2.41q.23,1.77.3,3.56c3.59-2.13,8.68-2,9.35-2A2,2,0,0,1,115.84,64c-.31.74-3.18,7.25-7.94,8.67a6.32,6.32,0,0,1-3.94-.08q-.32,1.51-.75,3A19.93,19.93,0,0,1,112.09,76.76Z"/><circle cx="64" cy="32" r="4.15"/><circle class="cls-1" cx="64" cy="64" r="62"/><text x="0" y="143" fill="#000000" font-size="5px" font-weight="bold" font-family="'Helvetica Neue', Helvetica, Arial-Unicode, Arial, Sans-serif">Created by Juraj Sedlák</text><text x="0" y="148" fill="#000000" font-size="5px" font-weight="bold" font-family="'Helvetica Neue', Helvetica, Arial-Unicode, Arial, Sans-serif">from the Noun Project</text></svg>