<svg xmlns="http://www.w3.org/2000/svg" xmlns:xlink="http://www.w3.org/1999/xlink" version="1.1" x="0px" y="0px" width="100px" height="100px" viewBox="5.0 -10.0 100.0 135.0" enable-background="new 0 0 100 100" xml:space="preserve">
<g id="Captions">
</g>
<g id="Your_Icon">
	<g>
		<path d="M73.475,59.668c-3.68,0.001-6.664,2.982-6.665,6.666c0,0.001,0,0.001,0,0.002c0,1.839,0.746,3.506,1.952,4.713    C69.969,72.254,71.635,73,73.476,73c3.683,0,6.666-2.984,6.666-6.666c0-1.841-0.746-3.507-1.953-4.714    C76.982,60.414,75.316,59.668,73.475,59.668z M73.476,69.667c-0.919,0-1.754-0.373-2.356-0.977    c-0.604-0.603-0.977-1.437-0.975-2.356c-0.002-1.842,1.49-3.332,3.33-3.334c0.922,0,1.755,0.373,2.357,0.978    c0.604,0.603,0.978,1.436,0.978,2.356C76.81,68.175,75.317,69.667,73.476,69.667z"/>
		<path d="M23.811,59.668c-3.128,0.001-5.752,2.154-6.471,5.062c-0.127,0.514-0.194,1.053-0.194,1.606    c0,1.839,0.746,3.506,1.952,4.713C20.304,72.254,21.97,73,23.812,73c3.682,0,6.664-2.983,6.665-6.664c0-0.001,0-0.001,0-0.002    c0.001-1.841-0.746-3.507-1.953-4.714C27.318,60.414,25.651,59.668,23.811,59.668z M23.812,69.667    c-0.92,0-1.754-0.373-2.356-0.977c-0.604-0.603-0.977-1.437-0.977-2.356c0-0.381,0.063-0.747,0.182-1.089    c0.451-1.307,1.69-2.243,3.15-2.245c0.921,0,1.754,0.373,2.357,0.978c0.574,0.574,0.942,1.358,0.975,2.229    c0.001,0.042,0.002,0.084,0.002,0.127C27.145,68.175,25.652,69.667,23.812,69.667z"/>
		<path d="M89.99,52.198c0,0-10.726-2.948-19.987-4.326L59.12,36.99c-1.904-1.904-5.665-3.463-8.358-3.463H29.397    c-2.693,0-5.876,1.974-7.074,4.386l-4.556,9.177l-8.309,3.671c-1.312,0.579-2.164,2.206-1.894,3.614l1.259,6.545    c0.271,1.408,1.651,2.741,3.069,2.962l2.208,0.344c0.398-1.848,1.318-3.545,2.687-4.913c1.875-1.873,4.369-2.907,7.022-2.908    c2.652,0.001,5.146,1.035,7.022,2.911c1.875,1.876,2.909,4.368,2.91,7.021l29.804-0.002c0.001-5.475,4.454-9.929,9.928-9.93h0.009    c2.649,0.001,5.141,1.035,7.013,2.907c1.878,1.876,2.911,4.371,2.909,7.022h3.24c1.434,0,3.277-0.964,4.096-2.142l0.207-0.296    c0.818-1.178,1.497-3.315,1.509-4.749l0.027-3.65C92.496,54.063,91.373,52.578,89.99,52.198z M38.782,47.178H24.253    c-0.355,0-0.705-0.021-1.034-0.058l3.489-7.028c0.372-0.748,1.854-1.668,2.689-1.668h9.385V47.178z M62.295,47.178    c-0.283,0-0.283,0-0.283,0c-0.391,0-1.884,0-3.317,0H43.679v-8.754h7.083c1.394,0,3.91,1.043,4.896,2.028l6.728,6.727    C62.356,47.179,62.324,47.178,62.295,47.178z"/>
	</g>
</g>
<text x="0.0" y="117.5" font-size="5.0" font-weight="bold" font-family="Helvetica Neue, Helvetica, Arial-Unicode, Arial, Sans-serif" fill="#000000">Created by Volodin Anton</text><text x="0.0" y="122.5" font-size="5.0" font-weight="bold" font-family="Helvetica Neue, Helvetica, Arial-Unicode, Arial, Sans-serif" fill="#000000">from the Noun Project</text></svg>