<svg xmlns="http://www.w3.org/2000/svg" xmlns:xlink="http://www.w3.org/1999/xlink" version="1.1" x="0px" y="0px" width="100px" height="100px" viewBox="0 0 100 100" enable-background="new 0 0 100 100" xml:space="preserve">
<g id="Captions">
</g>
<g id="Your_Icon">
	<path fill-rule="evenodd" clip-rule="evenodd" fill="#000000" d="M15.414,52.631L15.414,52.631c8.505,0,15.413,6.817,15.413,15.227   c0,8.396-6.908,15.225-15.413,15.225C6.904,83.082,0,76.254,0,67.857C0,59.448,6.904,52.631,15.414,52.631 M15.414,58.454   L15.414,58.454c5.288,0,9.585,4.212,9.585,9.403c0,5.18-4.297,9.391-9.585,9.391c-5.298,0-9.586-4.211-9.586-9.391   C5.828,62.666,10.116,58.454,15.414,58.454 M15.414,62.023L15.414,62.023c3.218,0,5.828,2.611,5.828,5.834   c0,3.212-2.61,5.822-5.828,5.822c-3.217,0-5.828-2.61-5.828-5.822C9.586,64.635,12.197,62.023,15.414,62.023"/>
	<path fill-rule="evenodd" clip-rule="evenodd" fill="#000000" d="M81.2,52.631L81.2,52.631c8.408,0,15.226,6.817,15.226,15.227   c0,8.396-6.817,15.225-15.226,15.225c-8.397,0-15.22-6.828-15.22-15.225C65.98,59.448,72.803,52.631,81.2,52.631 M81.2,58.454   L81.2,58.454c5.19,0,9.397,4.212,9.397,9.403c0,5.18-4.207,9.391-9.397,9.391c-5.186,0-9.396-4.211-9.396-9.391   C71.804,62.666,76.015,58.454,81.2,58.454 M81.2,62.023L81.2,62.023c3.218,0,5.828,2.611,5.828,5.834   c0,3.212-2.61,5.822-5.828,5.822s-5.828-2.61-5.828-5.822C75.372,64.635,77.982,62.023,81.2,62.023"/>
	<polygon fill-rule="evenodd" clip-rule="evenodd" fill="#000000" points="80.45,57.327 82.704,63.533 77.819,65.032 75.565,58.643     "/>
	<polygon fill-rule="evenodd" clip-rule="evenodd" fill="#000000" points="19.733,65.971 27.441,53.569 22.558,50.744    14.849,63.155  "/>
	<path fill-rule="evenodd" clip-rule="evenodd" fill="#000000" d="M88.532,50.561C95.299,53.569,100,60.147,100,67.857h-6.394   l-3.192-8.088l-10.341-4.507L69.55,62.218v12.966H56.2c-6.389,0.188-10.901,0.188-16.353,0.188c-5.45,0-7.144-3.763-7.144-7.515   c0-9.403-7.893-17.297-17.29-17.297h-0.377v-6.394h3.946c3.009,0,7.897-1.693,9.774-4.508l7.893-12.218   c1.132-1.692,1.693-0.754,1.51,0.184l-3.202,13.533c-0.561,1.693,1.509,2.637,3.202,1.132l3.946-3.763l4.324-6.955v-0.938V30.45   c-1.988,0-3.631-1.244-3.758-2.825h-0.005V22.93h-1.315c0.377-3.381,2.253-6.012,6.017-6.012c3.946,0,6.2,2.631,6.2,6.012   c-0.184,3.003-0.755,3.003-1.315,3.946v2.065c0.561,0,1.132,0,2.07,0.377c0.749,0.377,3.946,1.693,4.696,2.07   c0.749,0.377,0.943,0.377,1.881,1.315l7.71,8.082C70.3,42.474,70.3,44.36,70.3,46.049h15.413c2.07,0,2.819,1.315,2.819,3.758   V50.561z M49.812,41.536l-12.029,6.955l9.771,3.946l6.577-6.578C52.065,44.732,51.127,43.795,49.812,41.536 M66.164,64.471   c0.755-3.579,2.819-6.771,5.828-8.836c0.372-0.372,0.188-0.938-0.566-0.938h-6.2v9.774C65.226,65.226,65.976,65.409,66.164,64.471"/>
</g>
</svg>