<svg xmlns="http://www.w3.org/2000/svg" xmlns:xlink="http://www.w3.org/1999/xlink" version="1.1" x="0px" y="0px" viewBox="0 0 100 125" enable-background="new 0 0 100 100" xml:space="preserve"><path d="M94.185,7.131H5.815c-3.453,0-5.978,2.785-5.643,6.221l6.17,62.982c0.337,3.436,3.32,6.919,6.663,7.78l31.507,8.119  c3.342,0.861,8.758,0.845,12.096-0.039l30.395-8.041c3.338-0.883,6.316-4.384,6.652-7.819l6.17-62.982  C100.163,9.917,97.637,7.131,94.185,7.131z M27.862,31.11H13.798v-6.25h14.064V31.11z M57.032,31.11H42.447v-6.25h14.585  C57.032,24.86,57.032,31.11,57.032,31.11z M86.202,31.11H71.617v-6.25h14.585C86.202,24.86,86.202,31.11,86.202,31.11z"/><text x="0" y="115" fill="#000000" font-size="5px" font-weight="bold" font-family="'Helvetica Neue', Helvetica, Arial-Unicode, Arial, Sans-serif">Created by Christopher T. Howlett</text><text x="0" y="120" fill="#000000" font-size="5px" font-weight="bold" font-family="'Helvetica Neue', Helvetica, Arial-Unicode, Arial, Sans-serif">from the Noun Project</text></svg>