<svg xmlns="http://www.w3.org/2000/svg" xmlns:xlink="http://www.w3.org/1999/xlink" viewBox="0 0 24 30" version="1.1" x="0px" y="0px"><title>award_032-badge-medal-honor-prize-victory</title><desc>Created with Sketch.</desc><g stroke="none" stroke-width="1" fill="none" fill-rule="evenodd"><g transform="translate(-93.000000, -189.000000)" fill="#000000"><g transform="translate(93.000000, 189.000000)"><path d="M10.0742861,15.3902451 C10.1239517,15.3603401 9.87352994,15.5127389 9.81929141,15.5437401 C9.56611418,15.6884491 9.42915684,15.713109 9.18237254,15.6329239 C8.90970484,15.5443288 8.82575851,15.4438844 8.66748966,15.0656842 C8.51188796,14.6938575 8.47630684,14.6158618 8.36068276,14.429138 C8.19486652,14.161358 7.98361405,13.9301952 7.70290725,13.7262498 C7.2180335,13.3739684 6.85754928,13.2809714 6.17810968,13.2266011 C5.71952733,13.1899042 5.60571896,13.1469803 5.43237254,12.9083894 C5.30561881,12.7339279 5.27469273,12.607564 5.29465928,12.428911 C5.30450557,12.3408103 5.31611859,12.2862436 5.37197483,12.0513745 C5.51661501,11.4431789 5.53531484,11.047586 5.35617487,10.4962498 C5.19981112,10.0150117 4.96163353,9.68332417 4.5989033,9.35505703 C4.53509642,9.29731247 4.3251805,9.11709278 4.33959917,9.12967372 C4.06967251,8.89415051 4,8.77638086 4,8.5 C4,8.22361914 4.06967251,8.10584949 4.33959917,7.87032628 C4.3251805,7.88290722 4.53509642,7.70268753 4.5989033,7.64494297 C4.96163353,7.31667583 5.19981112,6.98498835 5.35617487,6.5037502 C5.53531484,5.95241405 5.51661501,5.55682107 5.37197483,4.94862552 C5.31611859,4.71375638 5.30450557,4.65918974 5.29465928,4.57108897 C5.27469273,4.39243604 5.30561881,4.26607215 5.43237254,4.09161061 C5.60571896,3.85301973 5.71952733,3.81009575 6.17810968,3.77339893 C6.85754928,3.7190286 7.2180335,3.62603158 7.70290725,3.27375019 C7.98361405,3.06980475 8.19486652,2.83864204 8.36068276,2.57086197 C8.47630684,2.38413825 8.51188796,2.30614246 8.66748966,1.93431576 C8.82575851,1.55611564 8.90970484,1.45567123 9.18237254,1.36707613 C9.42915684,1.28689105 9.56611418,1.31155086 9.81929141,1.45625992 C9.87352994,1.48726115 10.1239517,1.63965986 10.0742861,1.60975486 C10.5601492,1.90230621 10.946524,2.03999996 11.5,2.03999996 C12.053476,2.03999996 12.4398508,1.90230621 12.9257139,1.60975486 C12.8760483,1.63965986 13.1264701,1.48726115 13.1807086,1.45625992 C13.4338858,1.31155086 13.5708432,1.28689105 13.8176275,1.36707613 C14.0902952,1.45567123 14.1742415,1.55611564 14.3325103,1.93431576 C14.488112,2.30614246 14.5236932,2.38413825 14.6393172,2.57086197 C14.8051335,2.83864204 15.0163859,3.06980475 15.2970928,3.27375019 C15.7819665,3.62603158 16.1424507,3.7190286 16.8218903,3.77339893 C17.2804727,3.81009575 17.394281,3.85301973 17.5676275,4.09161061 C17.6943812,4.26607215 17.7253073,4.39243604 17.7053407,4.57108897 C17.6954944,4.65918974 17.6838814,4.71375638 17.6280252,4.94862552 C17.483385,5.55682107 17.4646852,5.95241405 17.6438251,6.5037502 C17.8001889,6.98498835 18.0383665,7.31667583 18.4010967,7.64494297 C18.4649036,7.70268753 18.6748195,7.88290722 18.6604008,7.87032628 C18.9303275,8.10584949 19,8.22361914 19,8.5 C19,8.77638086 18.9303275,8.89415051 18.6604008,9.12967372 C18.6748195,9.11709278 18.4649036,9.29731247 18.4010967,9.35505703 C18.0383665,9.68332417 17.8001889,10.0150117 17.6438251,10.4962498 C17.4646852,11.047586 17.483385,11.4431789 17.6280252,12.0513745 C17.6838814,12.2862436 17.6954944,12.3408103 17.7053407,12.428911 C17.7253073,12.607564 17.6943812,12.7339279 17.5676275,12.9083894 C17.394281,13.1469803 17.2804727,13.1899042 16.8218903,13.2266011 C16.1424507,13.2809714 15.7819665,13.3739684 15.2970928,13.7262498 C15.0163859,13.9301952 14.8051335,14.161358 14.6393172,14.429138 C14.5236932,14.6158618 14.488112,14.6938575 14.3325103,15.0656842 C14.1742415,15.4438844 14.0902952,15.5443288 13.8176275,15.6329239 C13.5708432,15.713109 13.4338858,15.6884491 13.1807086,15.5437401 C13.1264701,15.5127389 12.8760483,15.3603401 12.9257139,15.3902451 C12.4398508,15.0976938 12.053476,14.96 11.5,14.96 C10.946524,14.96 10.5601492,15.0976938 10.0742861,15.3902451 Z M12.4098789,16.2469331 C12.3464535,16.2087429 12.6162801,16.3729508 12.6844757,16.4119295 C13.1634659,16.685707 13.5817625,16.7610233 14.1266445,16.5839804 C14.7319604,16.3873013 14.9953665,16.0721278 15.2549926,15.4517238 C15.3872367,15.1357125 15.4131226,15.0789692 15.4895147,14.955602 C15.5883949,14.7959183 15.7114386,14.6612779 15.884878,14.5352668 C16.184803,14.3173585 16.3903574,14.26433 16.9016576,14.2234146 C17.6232395,14.1656719 17.9910014,14.0269668 18.3766445,13.4961746 C18.6540386,13.1143744 18.7461238,12.7381145 18.6991533,12.3178409 C18.6828735,12.1721755 18.6678004,12.1013508 18.600892,11.8200087 C18.4949128,11.3743781 18.4841241,11.1461436 18.5948816,10.8052668 C18.6913587,10.508341 18.8293005,10.3162425 19.0721029,10.0965088 C19.1244523,10.0491331 19.3234,9.87833002 19.3178572,9.88316634 C19.7850302,9.47553679 20,9.11216653 20,8.5 C20,7.88783347 19.7850302,7.52446321 19.3178572,7.11683366 C19.3234,7.12166998 19.1244523,6.95086693 19.0721029,6.90349124 C18.8293005,6.68375754 18.6913587,6.49165897 18.5948816,6.19473321 C18.4841241,5.85385638 18.4949128,5.62562189 18.600892,5.17999129 C18.6678004,4.8986492 18.6828735,4.82782447 18.6991533,4.68215914 C18.7461238,4.26188552 18.6540386,3.88562559 18.3766445,3.50382536 C17.9910014,2.97303317 17.6232395,2.83432808 16.9016576,2.77658542 C16.3903574,2.73566999 16.184803,2.68264147 15.884878,2.46473319 C15.7114386,2.33872209 15.5883949,2.20408166 15.4895147,2.04439805 C15.4131226,1.92103082 15.3872367,1.86428754 15.2549926,1.54827623 C14.9953665,0.927872233 14.7319604,0.612698695 14.1266445,0.416019611 C13.5817625,0.238976733 13.1634659,0.314293014 12.6844757,0.588070468 C12.6162801,0.627049161 12.3464535,0.791257074 12.4098789,0.753066919 C12.0658944,0.960189273 11.8419421,1.03999996 11.5,1.03999996 C11.1580579,1.03999996 10.9341056,0.960189273 10.5901211,0.753066919 C10.6535465,0.791257074 10.3837199,0.627049161 10.3155243,0.588070468 C9.83653409,0.314293014 9.4182375,0.238976733 8.87335555,0.416019611 C8.26803957,0.612698695 8.00463353,0.927872233 7.74500742,1.54827623 C7.61276329,1.86428754 7.58687742,1.92103082 7.51048529,2.04439805 C7.41160513,2.20408166 7.2885614,2.33872209 7.115122,2.46473319 C6.81519698,2.68264147 6.6096426,2.73566999 6.09834236,2.77658542 C5.37676045,2.83432808 5.00899865,2.97303317 4.62335555,3.50382536 C4.34596144,3.88562559 4.25387623,4.26188552 4.30084672,4.68215914 C4.31712652,4.82782447 4.33219962,4.8986492 4.39910799,5.17999129 C4.50508721,5.62562189 4.51587595,5.85385638 4.40511835,6.19473321 C4.30864132,6.49165897 4.17069951,6.68375754 3.92789709,6.90349124 C3.87554767,6.95086693 3.67660003,7.12166998 3.68214281,7.11683366 C3.2149698,7.52446321 3,7.88783347 3,8.5 C3,9.11216653 3.2149698,9.47553679 3.68214281,9.88316634 C3.67660003,9.87833002 3.87554767,10.0491331 3.92789709,10.0965088 C4.17069951,10.3162425 4.30864132,10.508341 4.40511835,10.8052668 C4.51587595,11.1461436 4.50508721,11.3743781 4.39910799,11.8200087 C4.33219962,12.1013508 4.31712652,12.1721755 4.30084672,12.3178409 C4.25387623,12.7381145 4.34596144,13.1143744 4.62335555,13.4961746 C5.00899865,14.0269668 5.37676045,14.1656719 6.09834236,14.2234146 C6.6096426,14.26433 6.81519698,14.3173585 7.115122,14.5352668 C7.2885614,14.6612779 7.41160513,14.7959183 7.51048529,14.955602 C7.58687742,15.0789692 7.61276329,15.1357125 7.74500742,15.4517238 C8.00463353,16.0721278 8.26803957,16.3873013 8.87335555,16.5839804 C9.4182375,16.7610233 9.83653409,16.685707 10.3155243,16.4119295 C10.3837199,16.3729508 10.6535465,16.2087429 10.5901211,16.2469331 C10.9341056,16.0398107 11.1580579,15.96 11.5,15.96 C11.8419421,15.96 12.0658944,16.0398107 12.4098789,16.2469331 Z"/><path d="M17,8.5 C17,5.46243388 14.5375661,3 11.5,3 C8.46243388,3 6,5.46243388 6,8.5 C6,11.5375661 8.46243388,14 11.5,14 C14.5375661,14 17,11.5375661 17,8.5 Z M7,8.5 C7,6.01471863 9.01471863,4 11.5,4 C13.9852814,4 16,6.01471863 16,8.5 C16,10.9852814 13.9852814,13 11.5,13 C9.01471863,13 7,10.9852814 7,8.5 Z"/><path d="M4.46065214,19.871735 C4.324572,19.6314501 4.0194679,19.5469755 3.77918306,19.6830557 C3.53889821,19.8191358 3.45442361,20.1242399 3.59050374,20.3645247 L5.28868022,23.3630966 C5.42476035,23.6033814 5.72986446,23.687856 5.9701493,23.5517759 C6.21043415,23.4156957 6.29490875,23.1105916 6.15882861,22.8703068 L4.46065214,19.871735 Z"/><path d="M0.59404942,19.5266501 C0.318004739,19.5193054 0.08827223,19.7371297 0.0809275006,20.0131744 C0.0735827712,20.2892191 0.29140712,20.5189516 0.567451802,20.5262963 L4.01227914,20.617953 C4.28832382,20.6252977 4.51805633,20.4074733 4.52540105,20.1314287 C4.53274578,19.855384 4.31492143,19.6256515 4.03887675,19.6183067 L0.59404942,19.5266501 Z"/><path d="M5.29517076,22.8591826 C5.15294693,23.0958829 5.22953516,23.4030615 5.46623538,23.5452853 C5.70293559,23.6875092 6.01011423,23.6109209 6.15233807,23.3742207 L10.4150111,16.2799414 C10.5572349,16.0432412 10.4806467,15.7360626 10.2439465,15.5938388 C10.0072463,15.4516149 9.70006764,15.5282032 9.5578438,15.7649034 L5.29517076,22.8591826 Z M5.2891508,13.1611814 C5.43137463,12.9244812 5.3547864,12.6173026 5.11808618,12.4750787 C4.88138597,12.3328549 4.57420733,12.4094431 4.4319835,12.6461433 L0.152166961,19.7689542 C0.00994312345,20.0056544 0.0865313594,20.312833 0.323231574,20.4550569 C0.559931788,20.5972807 0.867110424,20.5206925 1.00933426,20.2839923 L5.2891508,13.1611814 Z"/><path d="M19.4094963,20.3645247 C19.5455764,20.1242399 19.4611018,19.8191358 19.2208169,19.6830557 C18.9805321,19.5469755 18.675428,19.6314501 18.5393479,19.871735 L16.8411714,22.8703068 C16.7050912,23.1105916 16.7895659,23.4156957 17.0298507,23.5517759 C17.2701355,23.687856 17.5752396,23.6033814 17.7113198,23.3630966 L19.4094963,20.3645247 Z"/><path d="M22.4325482,20.5262963 C22.7085929,20.5189516 22.9264172,20.2892191 22.9190725,20.0131744 C22.9117278,19.7371297 22.6819953,19.5193054 22.4059506,19.5266501 L18.9611232,19.6183067 C18.6850786,19.6256515 18.4672542,19.855384 18.4745989,20.1314287 C18.4819437,20.4074733 18.7116762,20.6252977 18.9877209,20.617953 L22.4325482,20.5262963 Z"/><path d="M16.8476619,23.3742207 C16.9898858,23.6109209 17.2970644,23.6875092 17.5337646,23.5452853 C17.7704648,23.4030615 17.8470531,23.0958829 17.7048292,22.8591826 L13.4421562,15.7649034 C13.2999324,15.5282032 12.9927537,15.4516149 12.7560535,15.5938388 C12.5193533,15.7360626 12.4427651,16.0432412 12.5849889,16.2799414 L16.8476619,23.3742207 Z M18.5680165,12.6461433 C18.4257927,12.4094431 18.118614,12.3328549 17.8819138,12.4750787 C17.6452136,12.6173026 17.5686254,12.9244812 17.7108492,13.1611814 L21.9906657,20.2839923 C22.1328896,20.5206925 22.4400682,20.5972807 22.6767684,20.4550569 C22.9134686,20.312833 22.9900569,20.0056544 22.847833,19.7689542 L18.5680165,12.6461433 Z"/><g transform="translate(7.500000, 4.500000)"><path d="M1.4958363,2.71490584 C1.29809451,2.52215523 0.981537876,2.52620138 0.78878727,2.72394317 C0.596036664,2.92168496 0.600082817,3.23824159 0.797824606,3.4309922 L2.22440938,4.82156867 C2.42215117,5.01431928 2.7387078,5.01027313 2.93145841,4.81253134 C3.12420901,4.61478955 3.12016286,4.29823292 2.92242107,4.10548231 L1.4958363,2.71490584 Z"/><path d="M3.19022128,3.28127802 C3.46349371,3.24156921 3.65283444,2.98784778 3.61312563,2.71457535 C3.57341682,2.44130292 3.31969539,2.25196219 3.04642296,2.291671 L1.07493129,2.57814551 C0.801658862,2.61785432 0.612318135,2.87157574 0.652026944,3.14484818 C0.691735752,3.41812061 0.945457178,3.60746133 1.21872961,3.56775252 L3.19022128,3.28127802 Z"/><path d="M3.06621939,4.54804802 C3.11289989,4.2758798 2.93010598,4.01740183 2.65793776,3.97072133 C2.38576953,3.92404083 2.12729157,4.10683474 2.08061106,4.37900296 L1.74384008,6.34252845 C1.69715958,6.61469668 1.87995349,6.87317464 2.15212171,6.91985515 C2.42428994,6.96653565 2.6827679,6.78374174 2.72944841,6.51157351 L3.06621939,4.54804802 Z"/><path d="M2.00397368,5.98448527 C1.75955139,6.11298568 1.66557813,6.41529925 1.79407853,6.65972155 C1.92257894,6.90414384 2.22489251,6.9981171 2.46931481,6.86961669 L4.23267056,5.94256571 C4.47709286,5.81406531 4.57106612,5.51175173 4.44256571,5.26732944 C4.31406531,5.02290714 4.01175173,4.92893388 3.76732944,5.05743429 L2.00397368,5.98448527 Z"/><path d="M5.27055159,6.51157351 C5.3172321,6.78374174 5.57571006,6.96653565 5.84787829,6.91985515 C6.12004651,6.87317464 6.30284042,6.61469668 6.25615992,6.34252845 L5.91938894,4.37900296 C5.87270843,4.10683474 5.61423047,3.92404083 5.34206224,3.97072133 C5.06989402,4.01740183 4.88710011,4.2758798 4.93378061,4.54804802 L5.27055159,6.51157351 Z"/><path d="M4.23267056,5.05743429 C3.98824827,4.92893388 3.68593469,5.02290714 3.55743429,5.26732944 C3.42893388,5.51175173 3.52290714,5.81406531 3.76732944,5.94256571 L5.53068519,6.86961669 C5.77510749,6.9981171 6.07742106,6.90414384 6.20592147,6.65972155 C6.33442187,6.41529925 6.24044861,6.11298568 5.99602632,5.98448527 L4.23267056,5.05743429 Z"/><path d="M6.78127039,3.56775252 C7.05454282,3.60746133 7.30826425,3.41812061 7.34797306,3.14484818 C7.38768187,2.87157574 7.19834114,2.61785432 6.92506871,2.57814551 L4.95357704,2.291671 C4.68030461,2.25196219 4.42658318,2.44130292 4.38687437,2.71457535 C4.34716556,2.98784778 4.53650629,3.24156921 4.80977872,3.28127802 L6.78127039,3.56775252 Z"/><path d="M5.07757893,4.10548231 C4.87983714,4.29823292 4.87579099,4.61478955 5.06854159,4.81253134 C5.2612922,5.01027313 5.57784883,5.01431928 5.77559062,4.82156867 L7.20217539,3.4309922 C7.39991718,3.23824159 7.40396334,2.92168496 7.21121273,2.72394317 C7.01846212,2.52620138 6.70190549,2.52215523 6.5041637,2.71490584 L5.07757893,4.10548231 Z"/><path d="M4.43330984,3.00775736 C4.55552099,3.25538419 4.8553339,3.35705369 5.10296073,3.23484255 C5.35058756,3.1126314 5.45225706,2.81281848 5.33004592,2.56519165 L4.44836804,0.778717144 C4.32615689,0.531090314 4.02634397,0.429420815 3.77871714,0.551631962 C3.53109031,0.673843108 3.42942082,0.973656026 3.55163196,1.22128286 L4.43330984,3.00775736 Z"/><path d="M4.44836804,1.22128286 C4.57057918,0.973656026 4.46890969,0.673843108 4.22128286,0.551631962 C3.97365603,0.429420815 3.67384311,0.531090314 3.55163196,0.778717144 L2.66995408,2.56519165 C2.54774294,2.81281848 2.64941244,3.1126314 2.89703927,3.23484255 C3.1446661,3.35705369 3.44447901,3.25538419 3.56669016,3.00775736 L4.44836804,1.22128286 Z"/></g></g></g></g><text x="0" y="39" fill="#000000" font-size="5px" font-weight="bold" font-family="'Helvetica Neue', Helvetica, Arial-Unicode, Arial, Sans-serif">Created by Pham Thi Dieu Linh</text><text x="0" y="44" fill="#000000" font-size="5px" font-weight="bold" font-family="'Helvetica Neue', Helvetica, Arial-Unicode, Arial, Sans-serif">from the Noun Project</text></svg>